<svg width="512" height="512" xmlns="http://www.w3.org/2000/svg">

 <g>
  <title>background</title>
  <rect fill="none" id="canvas_background" height="402" width="582" y="-1" x="-1"/>
 </g>
 <g>
  <title>Layer 1</title>
  <path id="svg_4" d="m185.3,184.4c9.7,0 9.7,-15 0,-15c-9.7,0 -9.7,15 0,15l0,0z"/>
  <path fill="#ffffff" id="svg_7" d="m117,220.3c-15.6,-10.5 -31.6,-20.6 -46.9,-31.4c-33.7,-23.8 -44.9,-70.9 -26.2,-107.5c18,-35.1 58.6,-53.8 96.9,-44c19.7,5 37.4,17.2 48.9,34c3.9,5.7 7.6,11.4 11.4,17.1c13,19.4 25.9,38.8 38.9,58.2c5.3,8 18.3,0.5 13,-7.6c-12.2,-18.3 -24.5,-36.6 -36.7,-54.9c-4.5,-6.8 -9,-13.6 -13.6,-20.3c-12.4,-18.1 -30.2,-31.7 -50.9,-38.8c-42,-14.4 -89.3,2 -114.5,38.2c-25.8,37.1 -22.3,88.4 7.1,122.4c10,11.5 22.8,19.4 35.3,27.8c9.9,6.6 19.8,13.3 29.7,19.9c8,5.2 15.6,-7.8 7.6,-13.1l0,0z"/>
  <path fill="#ffffff" id="svg_10" d="m193.5,176.4c-6.5,-12 -15,-23.2 -22.6,-34.6c-8.5,-12.8 -16.8,-25.9 -25.6,-38.6c-9.1,-13 -26.1,-17.7 -40.3,-10.1c-14.8,7.9 -19.9,27.3 -11.8,41.8c3.8,6.7 9.9,10.5 16,14.5c7.5,5 15,10 22.5,15c9.4,6.2 18.8,12.5 28.2,18.7c4.7,3.1 9.2,6.6 14.1,9.2c8.5,4.6 16.1,-8.4 7.6,-13c-10.8,-5.9 -20.9,-13.8 -31.2,-20.6c-12.9,-8.5 -25.9,-16.9 -38.6,-25.6c-7.5,-5.1 -10.3,-15.2 -4.5,-22.8c6.5,-8.6 19.2,-7.5 25.2,0.8c8.5,11.8 16.1,24.3 24.2,36.5c7.9,12 16.8,23.7 23.7,36.3c4.8,8.6 17.7,1 13.1,-7.5l0,0z"/>
  <path id="svg_13" d="m373.3,412.7c9.7,0 9.7,-15 0,-15c-9.7,0 -9.7,15 0,15l0,0z"/>
  <path fill="#ffffff" id="svg_14" d="m395.8,291.4c2,2 4.9,3.5 7.3,5.1c4.9,3.4 9.8,6.7 14.7,10.1c7.6,5.2 15.3,10.4 22.9,15.7c33.3,23.1 46.2,68.6 28.8,105.6c-18.4,39 -63.6,58.6 -104.5,44.9c-17.3,-5.7 -32.4,-17.3 -42.7,-32.2c-4.1,-5.9 -8.2,-11.9 -12.2,-17.9c-12.6,-18.4 -25.2,-36.8 -37.7,-55.2c-5.4,-7.9 -18.4,-0.4 -13,7.6c11.7,17.2 23.5,34.3 35.2,51.5c4.9,7.1 9.7,14.3 14.6,21.4c10.9,15.7 25.5,28.3 43,35.9c43.1,18.7 93.8,4.5 121.4,-33.4c27,-37.1 23.9,-89.3 -5.8,-123.9c-9.7,-11.3 -22.2,-19.1 -34.3,-27.4c-6.3,-4.3 -12.7,-8.7 -19,-13c-2.3,-1.6 -4.6,-3.1 -6.9,-4.7c-1.1,-0.7 -4,-3.5 -1.2,-0.7c-6.9,-6.8 -17.5,3.8 -10.6,10.6l0,0z"/>
  <path fill="#ffffff" id="svg_15" d="m333.1,333c22.4,15.3 45,30.3 67.2,45.9c7.5,5.3 10.1,15.4 4,22.9c-6.6,8.2 -18.8,7.2 -24.9,-1c-8.3,-11.2 -15.8,-23.1 -23.7,-34.6c-8.2,-12 -16.4,-23.9 -24.6,-35.9c-5.4,-7.9 -18.4,-0.4 -13,7.6c16.2,23.6 31.9,47.6 48.5,70.9c9.2,12.9 26,17.7 40.2,10c14.6,-7.9 19.7,-26.6 12.1,-41.1c-3.5,-6.8 -9.6,-10.7 -15.7,-14.8c-7.2,-4.9 -14.4,-9.9 -21.6,-14.8c-13.7,-9.4 -27.4,-18.7 -41.1,-28.1c-7.8,-5.4 -15.3,7.6 -7.4,13l0,0z"/>
  <path id="svg_18" d="m369.1,233.5c9.7,0 9.7,-15 0,-15c-9.6,0 -9.6,15 0,15l0,0z"/>
  <path fill="#ffffff" id="svg_19" d="m195.4,337.3c0.2,0.2 0.4,0.4 0.6,0.6c0,-3.5 0,-7.1 0,-10.6c-12.9,12.7 -16.4,32.1 -8.4,48.5c7.7,15.9 25.7,24.8 43,22.3c11.4,-1.6 20.8,-8.9 30.3,-14.9c4.5,-2.8 9,-5.6 13.5,-8.5c26.7,-16.8 53.3,-33.6 80,-50.4c16.8,-10.6 33.6,-21.2 50.5,-31.8c-3,-0.4 -6.1,-0.8 -9.1,-1.2c0,0 0,0 0,0c2.3,2.3 6.3,2.9 9.1,1.2c9.8,-6.2 17.6,-13.3 21.6,-24.6c4.5,-12.8 1.9,-27.5 -6.2,-38.2c-8,-10.5 -20.7,-16.9 -33.9,-16.5c-10.9,0.3 -19.4,5.2 -28.3,10.8c3,0.4 6.1,0.8 9.1,1.2c-0.2,-0.2 -0.3,-0.3 -0.5,-0.5c-6.8,-6.8 -17.4,3.8 -10.6,10.6c0.2,0.2 0.3,0.3 0.5,0.5c2.3,2.3 6.3,2.9 9.1,1.2c5.7,-3.6 11.2,-7.7 18.1,-8.6c9,-1.2 18.3,2.6 24,9.6c5.8,7.1 7.3,16.7 4.4,25.4c-2.6,7.7 -8.3,12.1 -14.9,16.2c3,0.4 6.1,0.8 9.1,1.2c0,0 0,0 0,0c-2.3,-2.3 -6.3,-2.9 -9.1,-1.2c-25.4,16 -50.7,32 -76.1,47.9c-25.2,15.9 -50.4,31.8 -75.7,47.7c-3.8,2.4 -7.6,5.3 -11.9,6.8c-7.5,2.7 -15.8,1.9 -22.6,-2.1c-15.2,-9.1 -16.7,-29.9 -4.4,-42c2.9,-2.8 2.9,-7.8 0,-10.6c-0.2,-0.2 -0.4,-0.4 -0.6,-0.6c-6.8,-6.8 -17.4,3.8 -10.6,10.6l0,0z"/>
  <path fill="#ffffff" id="svg_20" d="m317.9,176.1c-0.2,-0.2 -0.4,-0.4 -0.5,-0.5c0,3.5 0,7.1 0,10.6c17,-16.7 17,-45.4 -1.4,-61.2c-8.5,-7.2 -19.7,-11 -30.8,-10c-8,0.8 -14.8,4 -21.5,8.2c-18.8,11.8 -37.6,23.7 -56.5,35.5c-34.3,21.6 -69,42.5 -102.8,64.7c-21.7,14.2 -26.3,44.9 -8,64c8.5,8.8 21.1,13.6 33.3,12.5c9.9,-0.9 17.5,-5.5 25.6,-10.6c-3,-0.4 -6.1,-0.8 -9.1,-1.2c0.2,0.2 0.3,0.3 0.5,0.5c6.8,6.8 17.4,-3.8 10.6,-10.6c-0.2,-0.2 -0.3,-0.3 -0.5,-0.5c-2.3,-2.3 -6.3,-2.9 -9.1,-1.2c-5.3,3.4 -10.5,7.2 -16.8,8.4c-8.2,1.5 -17,-1.1 -23,-6.9c-13.1,-12.6 -9.4,-32.9 5.3,-42.2c17.6,-11.1 35.2,-22.2 52.8,-33.2c29,-18.3 58,-36.5 87,-54.8c6,-3.8 12.1,-7.6 18.1,-11.4c6.3,-3.9 12.4,-6.9 20.1,-6.2c22.8,2 31.2,30.2 15.5,45.6c-2.9,2.8 -2.9,7.8 0,10.6c0.2,0.2 0.4,0.4 0.5,0.5c7,6.8 17.6,-3.8 10.7,-10.6l0,0z"/>
  <path fill="#ffffff" id="svg_23" d="m352.3,227.8c-24.8,15.6 -49.7,31.3 -74.5,46.9c-28.8,18.2 -57.6,36.4 -86.5,54.5c-7.3,4.6 -15.3,6.5 -23.8,3.9c-16.7,-5.1 -23.6,-25.7 -13.9,-40.1c5.6,-8.3 17.5,-13.6 25.7,-18.8c34.9,-22 69.9,-44 104.8,-66c12.1,-7.6 24.2,-15.2 36.2,-22.8c4.5,-2.9 9,-5.6 14.5,-6.2c16.7,-2 31.7,12.7 29.5,29.5c-1,7.9 -5.5,14.8 -12,19.1c-8,5.3 -0.5,18.3 7.6,13c16.3,-10.8 24.1,-31.3 16.8,-49.9c-7.1,-18.3 -25.9,-29.1 -45.3,-26.2c-12.5,1.9 -24,11.2 -34.5,17.8c-37.2,23.4 -74.3,46.8 -111.5,70.2c-10.5,6.6 -21,13.1 -31.4,19.8c-12.2,7.8 -20.1,21 -20,35.7c0.1,19.6 14.8,37.4 34.3,40.5c17.4,2.8 29.8,-6 43.4,-14.6c17,-10.7 34,-21.4 50.9,-32.1c31.8,-20 63.6,-40.1 95.4,-60.1c0.6,-0.4 1.2,-0.8 1.8,-1.1c8.2,-5.2 0.7,-18.2 -7.5,-13z"/>
 </g>
</svg>