<svg width="100" height="100" xmlns="http://www.w3.org/2000/svg">

 <g>
  <title>background</title>
  <rect fill="none" id="canvas_background" height="402" width="582" y="-1" x="-1"/>
 </g>
 <g>
  <title>Layer 1</title>
  <path id="svg_7" fill="#ffffff" d="m29.082,37.823c-6.617,0 -12,5.383 -12,12s5.383,12 12,12c6.615,0 12,-5.383 12,-12s-5.385,-12 -12,-12zm0,22c-5.516,0 -10,-4.486 -10,-10s4.484,-10 10,-10c5.514,0 10,4.486 10,10s-4.486,10 -10,10z"/>
  <path id="svg_8" fill="#ffffff" d="m99,26l-69.916,0l0,0c-0.002,0 -0.002,0 -0.002,0c-11.537,0 -21.193,8.093 -23.484,18.957c-2.721,0.233 -4.514,2.309 -4.514,4.91s1.793,4.698 4.514,4.932c2.291,10.864 11.947,19.035 23.484,19.035c11.527,0 21.138,-8.177 23.435,-19.029l46.483,-9.344l0,-19.461zm-34,4l0,3l-7.402,0l-2.123,-3l9.525,0zm-61.916,19.823c0,-1.408 0.73,-2.584 2.18,-2.905c-0.115,0.953 -0.182,1.921 -0.182,2.905s0.066,1.952 0.182,2.905c-1.45,-0.321 -2.18,-1.497 -2.18,-2.905zm25.998,20c-11.029,0 -20,-8.972 -20,-20s8.971,-20 20,-20c11.027,0 20,8.972 20,20c0,0.544 -0.039,1.078 -0.082,1.61l-0.062,0.013l0.049,0.244c-0.946,10.155 -9.508,18.133 -19.905,18.133zm65.918,-27.639l-41.981,8.435c0.01,-0.265 0.042,-0.441 0.042,-0.708c0,-8.34 -4.258,-15.911 -10.732,-19.911l10.695,0l3.541,5l10.435,0l0,-5l28,0l0,12.184z"/>
 </g>
</svg>